<svg width="152" height="20" viewBox="0 0 152 20" fill="none" xmlns="http://www.w3.org/2000/svg">
<path d="M12.6445 19L11.4023 14.9219H5.15625L3.91406 19H0L6.04688 1.79688H10.4883L16.5586 19H12.6445ZM10.5352 11.875C9.38672 8.17969 8.73828 6.08984 8.58984 5.60547C8.44922 5.12109 8.34766 4.73828 8.28516 4.45703C8.02734 5.45703 7.28906 7.92969 6.07031 11.875H10.5352ZM18.7266 1.86719H24.0586C26.4883 1.86719 28.25 2.21484 29.3438 2.91016C30.4453 3.59766 30.9961 4.69531 30.9961 6.20312C30.9961 7.22656 30.7539 8.06641 30.2695 8.72266C29.793 9.37891 29.1562 9.77344 28.3594 9.90625V10.0234C29.4453 10.2656 30.2266 10.7188 30.7031 11.3828C31.1875 12.0469 31.4297 12.9297 31.4297 14.0312C31.4297 15.5938 30.8633 16.8125 29.7305 17.6875C28.6055 18.5625 27.0742 19 25.1367 19H18.7266V1.86719ZM22.3594 8.65234H24.4688C25.4531 8.65234 26.1641 8.5 26.6016 8.19531C27.0469 7.89062 27.2695 7.38672 27.2695 6.68359C27.2695 6.02734 27.0273 5.55859 26.543 5.27734C26.0664 4.98828 25.3086 4.84375 24.2695 4.84375H22.3594V8.65234ZM22.3594 11.5352V16H24.7266C25.7266 16 26.4648 15.8086 26.9414 15.4258C27.418 15.043 27.6562 14.457 27.6562 13.668C27.6562 12.2461 26.6406 11.5352 24.6094 11.5352H22.3594ZM42.1289 4.64453C40.7617 4.64453 39.7031 5.16016 38.9531 6.19141C38.2031 7.21484 37.8281 8.64453 37.8281 10.4805C37.8281 14.3008 39.2617 16.2109 42.1289 16.2109C43.332 16.2109 44.7891 15.9102 46.5 15.3086V18.3555C45.0938 18.9414 43.5234 19.2344 41.7891 19.2344C39.2969 19.2344 37.3906 18.4805 36.0703 16.9727C34.75 15.457 34.0898 13.2852 34.0898 10.457C34.0898 8.67578 34.4141 7.11719 35.0625 5.78125C35.7109 4.4375 36.6406 3.41016 37.8516 2.69922C39.0703 1.98047 40.4961 1.62109 42.1289 1.62109C43.793 1.62109 45.4648 2.02344 47.1445 2.82812L45.9727 5.78125C45.332 5.47656 44.6875 5.21094 44.0391 4.98438C43.3906 4.75781 42.7539 4.64453 42.1289 4.64453ZM60.0234 9.92969H61.2188C62.3359 9.92969 63.1719 9.71094 63.7266 9.27344C64.2812 8.82812 64.5586 8.18359 64.5586 7.33984C64.5586 6.48828 64.3242 5.85938 63.8555 5.45312C63.3945 5.04688 62.668 4.84375 61.6758 4.84375H60.0234V9.92969ZM68.2266 7.21094C68.2266 9.05469 67.6484 10.4648 66.4922 11.4414C65.3438 12.418 63.707 12.9062 61.582 12.9062H60.0234V19H56.3906V1.86719H61.8633C63.9414 1.86719 65.5195 2.31641 66.5977 3.21484C67.6836 4.10547 68.2266 5.4375 68.2266 7.21094ZM74.2969 19L69.3047 5.89844H73.043L75.5742 13.3633C75.8555 14.3086 76.0312 15.2031 76.1016 16.0469H76.1719C76.2109 15.2969 76.3867 14.4023 76.6992 13.3633L79.2188 5.89844H82.957L77.9648 19H74.2969ZM90.3633 16.3867C90.9883 16.3867 91.7383 16.25 92.6133 15.9766V18.6367C91.7227 19.0352 90.6289 19.2344 89.332 19.2344C87.9023 19.2344 86.8594 18.875 86.2031 18.1562C85.5547 17.4297 85.2305 16.3438 85.2305 14.8984V8.58203H83.5195V7.07031L85.4883 5.875L86.5195 3.10938H88.8047V5.89844H92.4727V8.58203H88.8047V14.8984C88.8047 15.4062 88.9453 15.7812 89.2266 16.0234C89.5156 16.2656 89.8945 16.3867 90.3633 16.3867ZM94.7695 17.3242C94.7695 16.668 94.9453 16.1719 95.2969 15.8359C95.6484 15.5 96.1602 15.332 96.832 15.332C97.4805 15.332 97.9805 15.5039 98.332 15.8477C98.6914 16.1914 98.8711 16.6836 98.8711 17.3242C98.8711 17.9414 98.6914 18.4297 98.332 18.7891C97.9727 19.1406 97.4727 19.3164 96.832 19.3164C96.1758 19.3164 95.668 19.1445 95.3086 18.8008C94.9492 18.4492 94.7695 17.957 94.7695 17.3242ZM108.633 19V1.86719H112.266V16H119.215V19H108.633ZM127.441 16.3867C128.066 16.3867 128.816 16.25 129.691 15.9766V18.6367C128.801 19.0352 127.707 19.2344 126.41 19.2344C124.98 19.2344 123.938 18.875 123.281 18.1562C122.633 17.4297 122.309 16.3438 122.309 14.8984V8.58203H120.598V7.07031L122.566 5.875L123.598 3.10938H125.883V5.89844H129.551V8.58203H125.883V14.8984C125.883 15.4062 126.023 15.7812 126.305 16.0234C126.594 16.2656 126.973 16.3867 127.441 16.3867ZM136.5 19.2344C134.961 19.2344 133.75 18.6367 132.867 17.4414C131.992 16.2461 131.555 14.5898 131.555 12.4727C131.555 10.3242 132 8.65234 132.891 7.45703C133.789 6.25391 135.023 5.65234 136.594 5.65234C138.242 5.65234 139.5 6.29297 140.367 7.57422H140.484C140.305 6.59766 140.215 5.72656 140.215 4.96094V0.765625H143.801V19H141.059L140.367 17.3008H140.215C139.402 18.5898 138.164 19.2344 136.5 19.2344ZM137.754 16.3867C138.668 16.3867 139.336 16.1211 139.758 15.5898C140.188 15.0586 140.422 14.1562 140.461 12.8828V12.4961C140.461 11.0898 140.242 10.082 139.805 9.47266C139.375 8.86328 138.672 8.55859 137.695 8.55859C136.898 8.55859 136.277 8.89844 135.832 9.57812C135.395 10.25 135.176 11.2305 135.176 12.5195C135.176 13.8086 135.398 14.7773 135.844 15.4258C136.289 16.0664 136.926 16.3867 137.754 16.3867ZM147.035 17.3242C147.035 16.668 147.211 16.1719 147.562 15.8359C147.914 15.5 148.426 15.332 149.098 15.332C149.746 15.332 150.246 15.5039 150.598 15.8477C150.957 16.1914 151.137 16.6836 151.137 17.3242C151.137 17.9414 150.957 18.4297 150.598 18.7891C150.238 19.1406 149.738 19.3164 149.098 19.3164C148.441 19.3164 147.934 19.1445 147.574 18.8008C147.215 18.4492 147.035 17.957 147.035 17.3242Z" fill="#1A1A1A"/>
</svg>
