<svg width="20" height="21" viewBox="0 0 20 21" fill="none" xmlns="http://www.w3.org/2000/svg">
<path d="M10 20.6444C8.875 20.6444 7.984 19.7266 7.984 18.6162H11.968C11.968 19.8152 11.096 20.6444 9.999 20.6444H10ZM16 9.34691V14.4652L18.016 16.5417V17.5553H1.985V16.5417L4.001 14.4652V9.34691C4.001 6.15996 5.642 3.55293 8.501 2.82881V2.10469C8.501 1.23534 9.157 0.559631 10.001 0.559631C10.845 0.559631 11.501 1.23534 11.501 2.10469V2.82881C14.36 3.55293 16.001 6.20837 16.001 9.34691H16ZM17.969 8.81541C17.828 6.06314 16.469 3.69713 14.453 2.20049L15.859 0.752249C18.25 2.63516 19.843 5.53267 19.984 8.81541H17.968H17.969ZM5.594 2.20049C3.531 3.69713 2.172 6.06314 2.031 8.81541H0.0149994C0.155999 5.53164 1.749 2.63516 4.14 0.752249L5.594 2.20049Z" fill="#1A1A1A"/>
</svg>
